<?xml version="1.0" standalone="no"?>
<!DOCTYPE svg PUBLIC "-//W3C//DTD SVG 20010904//EN"
 "http://www.w3.org/TR/2001/REC-SVG-20010904/DTD/svg10.dtd">
<svg version="1.0" xmlns="http://www.w3.org/2000/svg"
 width="429.000000pt" height="429.000000pt" viewBox="0 0 429.000000 429.000000"
 preserveAspectRatio="xMidYMid meet">
<metadata>
Created by potrace 1.14, written by Peter Selinger 2001-2017
</metadata>
<g transform="translate(0.000000,429.000000) scale(0.100000,-0.100000)"
fill="#000000" stroke="none">
<path d="M2045 4274 c-535 -30 -1034 -251 -1406 -627 -267 -268 -461 -605
-553 -961 -54 -208 -61 -263 -61 -546 0 -283 7 -338 61 -546 190 -733 785
-1328 1518 -1518 208 -54 263 -61 546 -61 283 0 338 7 546 61 824 214 1450
920 1570 1770 19 142 22 418 5 554 -115 897 -780 1631 -1653 1824 -176 38
-408 59 -573 50z m853 -694 c128 -68 195 -180 195 -325 0 -143 -67 -257 -190
-323 -190 -101 -419 -23 -511 176 -23 48 -27 70 -27 147 0 76 4 99 27 146 29
64 86 131 139 164 68 43 118 55 214 52 80 -3 97 -7 153 -37z m-357 -824 c234
-50 364 -239 329 -478 -13 -89 -23 -124 -265 -898 -103 -329 -181 -561 -203
-603 -64 -125 -184 -212 -335 -244 -211 -44 -447 74 -499 250 -7 23 -12 76
-11 117 1 65 12 111 89 350 78 247 87 283 88 356 1 72 -2 85 -27 122 -47 72
-87 85 -268 92 -176 6 -201 14 -218 76 -13 46 5 95 45 121 26 17 57 18 404 18
l375 0 41 -24 c23 -13 47 -34 53 -48 26 -58 17 -83 -189 -491 -209 -414 -229
-466 -216 -554 17 -112 123 -187 251 -176 96 8 188 76 239 176 29 58 412 1273
428 1359 21 115 -10 197 -92 243 l-45 25 -690 5 c-730 5 -716 4 -749 52 -35
49 -8 136 48 158 11 5 320 9 686 9 534 1 678 -2 731 -13z m-248 -367 c38 -19
57 -51 57 -97 0 -35 -6 -49 -29 -73 l-29 -29 -737 0 -737 0 -29 29 c-49 50
-36 135 26 169 28 16 1448 16 1478 1z"/>
</g>
</svg>
